<?xml version="1.0" encoding="utf-8"?><!-- Uploaded to: SVG Repo, www.svgrepo.com, Generator: SVG Repo Mixer Tools -->
<svg width="800px" height="800px" viewBox="0 0 24 24" fill="none" xmlns="http://www.w3.org/2000/svg">
<path d="M13.0001 9.00005C13.0001 9.55233 12.5523 10 12.0001 10C11.4478 10 11.0001 9.55233 11.0001 9.00005C11.0001 8.44776 11.4478 8.00005 12.0001 8.00005C12.5523 8.00005 13.0001 8.44776 13.0001 9.00005Z" fill="#000000"/>
<path d="M12.0001 11.75C12.4143 11.75 12.7501 12.0858 12.7501 12.5V17.5C12.7501 17.9143 12.4143 18.25 12.0001 18.25C11.5858 18.25 11.2501 17.9143 11.2501 17.5V12.5C11.2501 12.0858 11.5858 11.75 12.0001 11.75Z" fill="#000000"/>
<path fill-rule="evenodd" clip-rule="evenodd" d="M14.2704 3.99268C13.1784 2.39502 10.8216 2.39501 9.72967 3.99268L9.29775 4.62463C6.59171 8.58384 4.26675 12.7905 2.35402 17.1881L2.2638 17.3956C1.58975 18.9453 2.60811 20.705 4.28766 20.8927C9.41329 21.4656 14.5868 21.4656 19.7124 20.8927C21.392 20.705 22.4103 18.9453 21.7363 17.3956L21.6461 17.1881C19.7333 12.7905 17.4084 8.58385 14.7023 4.62463L14.2704 3.99268ZM10.9681 4.83909C11.4644 4.11288 12.5357 4.11288 13.032 4.83909L13.4639 5.47104C16.1165 9.35206 18.3956 13.4756 20.2705 17.7864L20.3608 17.9938C20.6322 18.6179 20.2221 19.3264 19.5458 19.402C14.5309 19.9625 9.46917 19.9625 4.45427 19.402C3.77797 19.3264 3.36791 18.6179 3.63933 17.9938L3.72954 17.7864C5.6045 13.4756 7.88354 9.35205 10.5361 5.47104L10.9681 4.83909Z" fill="#000000"/>
</svg>